{"title":"Tyrant S03E04 PROPER A Prayer For Our Daughters 720p WEB-DL HEVC","uid":15446525,"size":400382312,"categoryP":"video","categoryS":"hd___tv_shows","magnet":"?xt=urn:btih:d097748ee8123ffe094eeaada529808a9b5e9af9&amp;dn=Tyrant+S03E04+PROPER+A+Prayer+For+Our+Daughters+720p+WEB-DL+HEVC&amp;tr=udp%3A%2F%2Ftracker.leechers-paradise.org%3A6969&amp;tr=udp%3A%2F%2Fzer0day.ch%3A1337&amp;tr=udp%3A%2F%2Fopen.demonii.com%3A1337&amp;tr=udp%3A%2F%2Ftracker.coppersurfer.tk%3A6969&amp;tr=udp%3A%2F%2Fexodus.desync.com%3A6969","seeders":0,"leechers":1,"uploader":"nayhtut","files":1,"time":1469892622,"description":"[Screenshots]\r\n\r\n \nhttps://s32.postimg.org/b1mur10yt/Tyrant_S03_E04_PROPER_A_Prayer_For_Our_Daughters.jpg \nhttps://s32.postimg.org/6ts2i9zj9/Tyrant_S03_E04_PROPER_A_Prayer_For_Our_Daughters.jpg \nhttps://s32.postimg.org/su8eywi79/Tyrant_S03_E04_PROPER_A_Prayer_For_Our_Daughters.jpg\r\n\r\n\r\n   \r\nSource: Tyrant S03E04 PROPER A Prayer For Our Daughters 1080p WEB-DL DD5 1 H 264-TTL (1.95 GB)\r\n\r\nComplete name                            : Tyrant.S03E04.PROPER.A.Prayer.For.Our.Daughters.720p.WEB-DL.HEVC.2CH.x265.mkv\r\nFormat                                   : Matroska\r\nFormat version                           : Version 4 / Version 2\r\nFile size                                : 382 MiB\r\nDuration                                 : 51mn 31s\r\nOverall bit rate                         : 1 036 Kbps\r\nWriting application                      : Lavf57.25.100\r\nWriting library                          : Lavf57.25.100\r\n\r\nVideo\r\n\r\nID                                       : 1\r\nFormat                                   : V_MPEGH/ISO/HEVC\r\nCodec ID                                 : V_MPEGH/ISO/HEVC\r\nDuration                                 : 51mn 31s\r\nBit rate                                 : 823 Kbps\r\nWidth                                    : 1 280 pixels\r\nHeight                                   : 718 pixels\r\nDisplay aspect ratio                     : 16:9\r\nFrame rate                               : 25.000 fps\r\nBits/(Pixel*Frame)                       : 0.036\r\nStream size                              : 303 MiB (79%)\r\nWriting library                          : Lavc57.48.101 libx265\r\nLanguage                                 : English\r\nDefault                                  : Yes\r\nForced                                   : No\r\nDURATION                                 : 00:51:31.638000000\r\n\r\nAudio\r\n\r\nID                                       : 2\r\nFormat                                   : AC-3\r\nFormat/Info                              : Audio Coding 3\r\nMode extension                           : CM (complete main)\r\nFormat settings, Endianness              : Big\r\nCodec ID                                 : A_AC3\r\nDuration                                 : 51mn 31s\r\nBit rate mode                            : Constant\r\nBit rate                                 : 192 Kbps\r\nChannel(s)                               : 2 channels\r\nChannel positions                        : Front: L R\r\nSampling rate                            : 48.0 KHz\r\nBit depth                                : 16 bits\r\nCompression mode                         : Lossy\r\nStream size                              : 70.8 MiB (19%)\r\nWriting library                          : Lavc57.24.102 ac3\r\nLanguage                                 : English\r\nDefault                                  : Yes\r\nForced                                   : No\r\nDURATION                                 : 00:51:31.643000000\r\n\r\nText\r\n\r\nID                                       : 3\r\nFormat                                   : ASS\r\nCodec ID                                 : S_TEXT/ASS\r\nCodec ID/Info                            : Advanced Sub Station Alpha\r\nCompression mode                         : Lossless\r\nWriting library                          : Lavc57.48.101 ssa\r\nLanguage                                 : English\r\nDefault                                  : Yes\r\nForced                                   : No\r\nDURATION                                 : 00:51:31.565000000\r\n\r\nMenu\r\n\r\n00:00:00.000                             : :Chapter 1\r\n00:06:00.000                             : :Chapter 2\r\n00:12:00.000                             : :Chapter 3\r\n00:18:00.000                             : :Chapter 4\r\n00:24:00.000                             : :Chapter 5\r\n00:30:00.000                             : :Chapter 6\r\n00:36:00.000                             : :Chapter 7\r\n00:42:00.000                             : :Chapter 8\r\n00:48:00.000                             : :Chapter 9\r\n\r\nIMDb: http://www.imdb.com/title/tt2568204\r\n\r\nAfter adding torrent with magnet link,\r\n\r\nplease add this  following trackers list to the torrent for better seeds.\r\n\r\n\r\nudp://tracker.coppersurfer.tk:6969/announce\r\n\r\nudp://tracker.opentrackr.org:1337/announce\r\n \nhttp://tracker.baravik.org:6970/announce\r\n \nhttp://tracker2.wasabii.com.tw:6969/announce\r\n\r\nudp://9.rarbg.me:2710/announce\r\n\r\n\r\n__--__--__--__--__--__--__--__--__--__--__--__--__--\r\n\r\n\r\nEnjoy!","torrent":{"xt":"urn:btih:d097748ee8123ffe094eeaada529808a9b5e9af9","amp;dn":"Tyrant+S03E04+PROPER+A+Prayer+For+Our+Daughters+720p+WEB-DL+HEVC","amp;tr":["udp%3A%2F%2Ftracker.leechers-paradise.org%3A6969","udp%3A%2F%2Fzer0day.ch%3A1337","udp%3A%2F%2Fopen.demonii.com%3A1337","udp%3A%2F%2Ftracker.coppersurfer.tk%3A6969","udp%3A%2F%2Fexodus.desync.com%3A6969"],"infoHash":"d097748ee8123ffe094eeaada529808a9b5e9af9","infoHashBuffer":{"type":"Buffer","data":[208,151,116,142,232,18,63,254,9,78,234,173,165,41,128,138,155,94,154,249]},"announce":[],"urlList":[]}}